<svg width="40" height="40" viewBox="0 0 40 40" fill="none" xmlns="http://www.w3.org/2000/svg">
<path d="M8.69847 3L31.9113 3.01413C31.9109 4.16675 31.8852 5.42482 31.9149 6.56879C33.0534 6.57345 34.2582 6.59528 35.3916 6.57188C35.3835 11.7066 35.3324 16.9787 35.3919 22.1071L37.2432 22.1192C37.2445 22.5058 37.2705 24.685 37.2179 24.941C37.7259 25.028 39.4261 24.9717 40 24.977C39.9648 27.5561 39.9502 30.1355 39.9561 32.7148C37.2503 32.7217 34.4084 32.6707 31.7195 32.7191C31.7143 33.815 31.7156 34.9108 31.7235 36.0067L17.1802 35.9957L12.2487 35.9974C11.3793 35.9977 10.3715 36.0204 9.51019 35.988C9.4426 34.9315 9.4689 33.5352 9.46396 32.4515L2.89353 32.4392C2.84435 31.3283 2.90628 30.2183 2.8971 29.1041C2.23705 29.1089 0.563496 29.1551 0 29.0772L0.00537464 24.9745L2.85087 24.9704C2.78162 24.1409 2.81734 22.9716 2.82614 22.123L5.14328 22.1213C5.21239 16.9527 5.10133 11.7419 5.17096 6.56946C6.33676 6.58582 7.5311 6.56946 8.69938 6.56908C8.65971 5.42834 8.69424 4.15215 8.69847 3Z" fill="#8ED098"/>
<path d="M31.9212 22.8869C33.0738 22.8599 34.2269 22.8569 35.3795 22.8778L35.3835 25.0111C35.8939 25.0131 36.611 25.0361 37.1077 24.9913C37.134 24.9664 37.1807 24.9547 37.2179 24.941C37.7258 25.028 39.4261 24.9717 40 24.977C39.9648 27.5561 39.9502 30.1355 39.9561 32.7148C37.2503 32.7217 34.4084 32.6707 31.7195 32.7191C31.7143 33.815 31.7156 34.9108 31.7235 36.0067L17.1802 35.9957L12.2487 35.9974C11.3793 35.9977 10.3715 36.0204 9.51018 35.988C9.4426 34.9315 9.4689 33.5352 9.46395 32.4515L2.89353 32.4392C2.84435 31.3283 2.90627 30.2183 2.89709 29.1041C4.77863 29.0584 6.74545 29.0782 8.63497 29.07L10.6989 29.0732C10.6815 30.1899 10.6809 31.3068 10.6968 32.4236L11.202 32.4254C11.5528 32.4474 12.017 32.4393 12.3694 32.4273C14.6398 32.3502 17.0226 32.5496 19.2778 32.4L21.1509 32.4065C21.252 32.024 21.2027 29.5292 21.2074 28.9525C21.6814 28.9625 23.6603 28.8618 23.9293 28.95C24.5884 28.996 25.7001 28.9326 26.3975 28.918C26.439 28.1276 26.468 27.4466 26.4485 26.6572C26.9397 26.6877 29.0585 26.8555 29.3489 26.5738C29.5081 26.2452 29.5633 25.2122 29.4889 24.8417C30.2632 24.8299 31.1285 24.851 31.9072 24.8733C31.9004 24.2112 31.9051 23.5489 31.9212 22.8869Z" fill="#496B6D"/>
<path d="M29.4889 24.8417C30.2632 24.8299 31.1286 24.851 31.9072 24.8733C32.0068 25.0544 32.0236 26.0249 31.9334 26.174C30.9869 27.7376 31.0113 27.3548 31.2648 29.1163L31.266 32.4034C29.1547 32.5317 26.9425 32.3872 24.8212 32.4354C24.5311 32.4419 24.2032 32.4421 23.9151 32.4288C23.0231 32.4298 22.0346 32.4504 21.1509 32.4065C21.2521 32.024 21.2027 29.5292 21.2074 28.9525C21.6814 28.9625 23.6603 28.8618 23.9293 28.95C24.5884 28.996 25.7001 28.9326 26.3975 28.918C26.439 28.1276 26.4681 27.4466 26.4486 26.6572C26.9397 26.6877 29.0585 26.8555 29.3489 26.5738C29.5081 26.2452 29.5633 25.2122 29.4889 24.8417Z" fill="#C193B0"/>
<path d="M21.2074 28.9525C21.6814 28.9625 23.6603 28.8618 23.9293 28.95C23.9743 29.3921 23.9275 30.0935 23.9181 30.5616C23.9065 31.1443 23.9534 31.8655 23.9151 32.4288C23.0231 32.4298 22.0346 32.4504 21.1509 32.4065C21.2521 32.024 21.2027 29.5292 21.2074 28.9525Z" fill="#B8B2B4"/>
<path d="M31.9212 22.8869C33.0738 22.8599 34.2269 22.8569 35.3795 22.8778L35.3835 25.0111C35.8939 25.0131 36.611 25.0361 37.1077 24.9913L37.1938 25.0524C37.2337 26.3566 37.1957 27.7529 37.21 29.0705C35.268 29.1016 33.2083 29.1391 31.2648 29.1163C31.0113 27.3548 30.9869 27.7376 31.9334 26.174C32.0236 26.0249 32.0068 25.0544 31.9072 24.8733C31.9004 24.2112 31.9051 23.5489 31.9212 22.8869Z" fill="#B291B6"/>
<path d="M31.9149 6.5688C33.0534 6.57346 34.2582 6.59529 35.3916 6.57189C35.3836 11.7066 35.3324 16.9787 35.3919 22.1071L37.2432 22.1193C37.2445 22.5058 37.2705 24.6851 37.2179 24.941C37.1807 24.9547 37.1341 24.9664 37.1077 24.9913C36.611 25.0361 35.8939 25.0131 35.3835 25.0111L35.3796 22.8778C34.2269 22.8569 33.0738 22.8599 31.9212 22.8869C31.9051 23.5489 31.9004 24.2112 31.9072 24.8733C31.1286 24.851 30.2632 24.8299 29.4889 24.8417C28.9659 24.9337 27.3364 24.8844 26.7054 24.8859C26.6891 24.4936 26.6988 24.0542 26.6993 23.6579C27.2905 23.7958 27.5699 23.8331 28.1678 23.9041C28.1841 23.4429 28.1803 22.8213 28.305 22.3788C28.3393 22.2569 28.5686 22.0461 28.5774 21.943C28.6593 20.9862 28.6329 19.9032 28.6246 18.9484C28.5875 17.9301 28.5959 8.97503 28.4171 8.73409C27.9966 8.66493 27.1998 8.66988 26.7728 8.69009C26.8305 7.96884 26.698 7.3838 26.709 6.6673C26.3592 6.66416 25.719 6.64694 25.3873 6.63624C24.7953 6.61722 23.1356 6.70639 22.662 6.58112C25.6544 6.5473 28.9521 6.66216 31.9149 6.5688Z" fill="#80C3A3"/>
<path d="M31.9149 6.5688C33.0534 6.57346 34.2582 6.59529 35.3916 6.57189C35.3835 11.7066 35.3324 16.9787 35.3919 22.1071L37.2432 22.1193C37.2445 22.5058 37.2705 24.6851 37.2179 24.941C37.1807 24.9547 37.1341 24.9664 37.1077 24.9913C36.611 25.0361 35.8939 25.0131 35.3835 25.0111L35.3795 22.8778C34.2269 22.8569 33.0738 22.8599 31.9212 22.8869L31.8852 22.6686C31.9243 22.494 31.9105 21.6311 31.9103 21.4138L31.9123 18.8328L31.9059 7.06162C31.9169 6.94424 31.9129 6.6966 31.9149 6.5688Z" fill="#456B69"/>
<path d="M29.4361 22.1537C30.2404 22.1579 31.0444 22.1809 31.8475 22.2228C31.8489 22.4124 31.8486 22.4829 31.8852 22.6686L31.9212 22.8869C31.9051 23.5489 31.9004 24.2112 31.9072 24.8733C31.1286 24.851 30.2632 24.8299 29.4889 24.8417C29.4038 24.2504 29.436 22.8123 29.4361 22.1537Z" fill="#A7DDB3"/>
<path d="M8.69847 3.00001L31.9113 3.01413C31.9109 4.16676 31.8852 5.42483 31.9149 6.5688C28.9521 6.66216 25.6544 6.5473 22.662 6.58112C18.0674 6.47801 13.3061 6.6517 8.69937 6.56909C8.65971 5.42835 8.69423 4.15216 8.69847 3.00001Z" fill="#456B69"/>
<path d="M5.17096 6.56947C6.33676 6.58583 7.5311 6.56946 8.69938 6.56908C8.7671 11.0138 8.66627 15.4814 8.70366 19.9285C8.70965 20.6402 8.70366 21.3851 8.67707 22.0955C8.58642 22.1828 8.62656 22.1571 8.46838 22.1633C7.37082 22.1139 6.24316 22.1803 5.13634 22.1382C5.13796 22.7205 5.1224 23.4199 5.14875 23.9927C5.14514 24.3156 5.13434 24.6531 5.15698 24.974C4.40938 24.9789 3.63162 24.9943 2.88678 24.9755C2.89895 26.2872 2.83584 27.781 2.89862 29.0608C2.41203 29.0605 0.381768 29.0237 0 29.0772L0.00537464 24.9745L2.85087 24.9704C2.78162 24.141 2.81734 22.9716 2.82614 22.123L5.14328 22.1213C5.21239 16.9527 5.10133 11.7419 5.17096 6.56947Z" fill="#456B69"/>
<path d="M8.57504 27.1748C9.56706 27.1606 10.5592 27.1745 11.5504 27.2164C11.549 27.7469 11.5402 28.2932 11.5584 28.8222C12.0136 28.8223 12.4843 28.829 12.9379 28.8215C12.9576 30.0069 12.9563 31.1926 12.9341 32.3779C12.5781 32.3792 11.503 32.3626 11.202 32.4254L10.6968 32.4236C10.6809 31.3068 10.6815 30.1899 10.6989 29.0732L8.63497 29.07C8.61875 28.4554 8.61613 27.7839 8.57504 27.1748Z" fill="#A7DDB3"/>
<path d="M5.13634 22.1382C6.24316 22.1803 7.37082 22.1139 8.46837 22.1633C8.3665 22.5071 8.38058 26.0735 8.36683 26.6775C7.67407 26.6472 6.98054 26.6365 6.28711 26.6453C6.29429 25.9693 6.29339 25.2661 6.23822 24.5919C5.87034 24.6884 5.59006 24.7461 5.21491 24.8118C5.20887 24.5932 5.2159 24.1835 5.14875 23.9927C5.1224 23.4199 5.13795 22.7205 5.13634 22.1382Z" fill="#A7DDB3"/>
<path d="M18.2187 28.9648C19.2148 28.9417 20.2112 28.9376 21.2074 28.9525C21.2027 29.5292 21.252 32.024 21.1509 32.4065L19.2778 32.4C19.0294 32.3679 18.4494 32.3803 18.1753 32.3791C18.1823 31.2409 18.1968 30.1028 18.2187 28.9648Z" fill="#A7DDB3"/>
<path d="M15.6982 21.3659L24.2036 21.3551L24.1913 24.2652C21.4417 24.2161 18.4534 24.2333 15.7009 24.2535L15.6982 21.3659Z" fill="#2B4730"/>
<path d="M11.5456 6.61555L15.5991 6.61151C15.5747 7.75838 15.5927 8.9736 15.5892 10.1271C15.1613 10.128 14.7943 10.1367 14.3676 10.1637C14.2404 10.1601 14.1353 10.1433 14.0238 10.1976C13.8342 10.467 13.9316 11.1257 13.9387 11.5091C13.1728 11.5092 12.325 11.5255 11.5675 11.4815C11.5378 9.87939 11.5536 8.22352 11.5456 6.61555Z" fill="#A7DDB3"/>
<path d="M12.8856 14.2206L16.068 14.2167C16.0606 15.1112 16.115 16.5959 16.0334 17.4303C14.9729 17.4219 13.9124 17.4257 12.852 17.4418C12.8506 16.4582 12.8199 15.1806 12.8856 14.2206Z" fill="#2B4730"/>
<path d="M24.0052 14.1977C24.8696 14.2567 26.2556 14.2048 27.1308 14.1817C27.1509 15.2612 27.1456 16.3647 27.1504 17.4463C26.1001 17.4112 25.0489 17.414 23.9988 17.4545C23.9643 16.5088 23.963 15.1399 24.0052 14.1977Z" fill="#2B4730"/>
</svg>
