<svg width="40" height="40" viewBox="0 0 40 40" fill="none" xmlns="http://www.w3.org/2000/svg">
<rect width="40" height="40" rx="8" fill="white"/>
<path d="M29.5293 7.01172C29.5289 7.93371 29.5085 8.94043 29.5322 9.85547C30.4429 9.8592 31.4069 9.87614 32.3135 9.85742C32.307 13.9652 32.2659 18.1835 32.3135 22.2861L33.7949 22.2949C33.7959 22.6042 33.8164 24.3477 33.7744 24.5527C34.1809 24.6223 35.5409 24.5778 36 24.582C35.9719 26.645 35.9601 28.7083 35.9648 30.7715C33.8003 30.777 31.527 30.7366 29.376 30.7754C29.3718 31.652 29.3726 32.5286 29.3789 33.4053L17.7441 33.3965L13.7988 33.3975C13.1034 33.3977 12.2973 33.4166 11.6084 33.3906C11.5543 32.5455 11.5752 31.4285 11.5713 30.5615L6.31445 30.5518C6.27511 29.6631 6.32473 28.7742 6.31738 27.8828C5.78915 27.8866 4.45071 27.9236 4 27.8613L4.00391 24.5801L6.28027 24.5762C6.22491 23.9128 6.2537 22.9777 6.26074 22.2988L8.11426 22.2969C8.16954 18.162 8.08102 13.9934 8.13672 9.85547C9.06936 9.86856 10.0253 9.85577 10.96 9.85547C10.9282 8.94288 10.9556 7.92172 10.959 7L29.5293 7.01172ZM16.5586 21.6924L16.5605 24.0029C18.7624 23.9868 21.153 23.9725 23.3525 24.0117L23.3633 21.6846L16.5586 21.6924ZM25.7051 15.9453C25.0049 15.9638 23.8956 16.0052 23.2041 15.958C23.1703 16.7117 23.1716 17.8069 23.1992 18.5635C24.0392 18.531 24.8806 18.5286 25.7207 18.5566C25.7169 17.6915 25.7212 16.8088 25.7051 15.9453ZM14.3086 15.9766C14.256 16.7446 14.2802 17.7669 14.2812 18.5537C15.1296 18.5408 15.9787 18.5372 16.8271 18.5439C16.8924 17.8765 16.8486 16.6892 16.8545 15.9736L14.3086 15.9766Z" fill="#4F4F4F"/>
</svg>
